<svg width="114" height="39" viewBox="0 0 114 39" fill="none" xmlns="http://www.w3.org/2000/svg">
<g clip-path="url(#clip0_406_5171)">
<path d="M31.7893 35.2579C31.7644 33.5174 31.8266 31.7644 31.6774 30.0363C31.4785 27.7737 30.3969 25.9088 28.4947 24.678C25.6975 22.8754 22.8505 21.1597 20.0035 19.4192C22.9127 17.6538 25.8342 15.8884 28.7061 14.0485C30.3098 13.0166 31.4412 11.3755 31.5655 9.49825C31.7893 6.41505 31.6525 3.29455 31.665 0C27.6991 2.46159 23.758 4.81128 19.9165 7.33503C18.1262 8.50367 17.1441 10.4058 17.0322 12.5317C16.8954 15.0057 16.9576 17.4922 16.97 19.9662C16.97 21.3462 16.97 22.7137 16.97 24.0813C16.97 25.0137 16.97 25.971 17.1192 26.891C17.43 28.905 18.4246 30.6082 20.1154 31.7147C23.8824 34.1638 27.7239 36.4762 31.7893 39.0124C31.7893 37.5952 31.7893 36.4265 31.7893 35.2703V35.2579Z" fill="#035985"/>
<path d="M11.7733 7.33503C7.94421 4.81128 4.00319 2.46159 0.0372955 0C0.0372955 1.5043 -1.29547e-06 2.97131 -1.29547e-06 4.41345C-1.29547e-06 4.69939 -1.29547e-06 4.98534 -1.29547e-06 5.27128V20.8986C-1.29547e-06 21.0354 -1.29547e-06 21.1846 -1.29547e-06 21.3213C-0.0124336 23.037 -0.0124336 24.7651 0.0745923 26.4807C0.186483 28.6066 1.18106 30.5088 2.95888 31.6774C6.78801 34.1887 10.729 36.5384 14.7074 39.0124C14.7074 37.8687 14.7074 36.7498 14.7322 35.6433V33.7536C14.7322 33.7536 14.7447 13.7874 14.7322 12.5069C14.7074 10.3685 13.5512 8.5161 11.7609 7.33503H11.7733Z" fill="#035985"/>
<path d="M49.8907 18.3003H47.2053L44.4329 13.7874L41.5238 18.3003H39.5222V6.10425H41.7973V13.7625L46.7204 6.10425H49.3685L45.7756 11.6615L49.8658 18.3003H49.8907Z" fill="#4C4C4C"/>
<path d="M61.1543 6.10425V14.0609C61.1543 17.1317 58.5559 18.5489 55.97 18.5489C53.3841 18.5489 50.7858 17.1192 50.7858 14.0609V6.10425H53.0112V13.7004C53.0112 15.5279 54.4906 16.3982 55.97 16.3982C57.4495 16.3982 58.9289 15.5279 58.9289 13.7004V6.10425H61.1543Z" fill="#4C4C4C"/>
<path d="M72.306 16.1122V18.2879H63.2802V6.10425H65.5553V16.1122H72.2936H72.306Z" fill="#4C4C4C"/>
<path d="M79.8275 6.10425V8.27989H76.2968V18.2879H74.0217V8.27989H70.4909V6.10425H79.84H79.8275Z" fill="#4C4C4C"/>
<path d="M91.3398 6.10425V14.0609C91.3398 17.1317 88.7415 18.5489 86.1556 18.5489C83.5697 18.5489 80.9713 17.1192 80.9713 14.0609V6.10425H83.1967V13.7004C83.1967 15.5279 84.6761 16.3982 86.1556 16.3982C87.635 16.3982 89.1144 15.5279 89.1144 13.7004V6.10425H91.3398Z" fill="#4C4C4C"/>
<path d="M102.715 16.1495V18.2879H100.627V16.9825C100.627 14.7695 99.4954 13.7998 98.1651 13.7998C96.8349 13.7998 95.7408 14.782 95.7408 16.9825V18.2879H93.4657V6.10425H98.3392C101.037 6.10425 102.342 7.53396 102.342 10.0701C102.342 11.5993 101.46 12.5815 100.341 13.029C101.92 13.5139 102.715 14.6825 102.715 16.1495ZM99.9802 10.0701C99.9802 8.36692 98.9235 8.27989 98.1651 8.27989H95.7408V13.489C97.0835 11.5371 99.9678 12.2209 99.9678 10.0701H99.9802Z" fill="#4C4C4C"/>
<path d="M113.618 16.1122V18.2879H104.593V6.10425H113.444V8.27989H106.88V12.7431C107.788 11.5247 109.143 10.9528 110.361 10.928H112.5V13.0166H110.684C108.944 13.0166 106.868 13.7874 106.868 16.1122H113.606H113.618Z" fill="#4C4C4C"/>
<path d="M52.7874 23.5217V35.7178H50.5123V26.953L47.255 32.9827H45.0918L41.8221 26.953V35.7178H39.547V23.5217H42.5432L46.1858 30.086L49.8285 23.5217H52.8122H52.7874Z" fill="#4C4C4C"/>
<path d="M66.1396 35.7056H63.6905L62.9072 33.7786H61.3532C59.103 33.7786 57.1884 34.0023 56.517 35.7056H54.0555L59.0035 23.5095H61.1916L66.1396 35.7056ZM62.0494 31.6775L60.0975 26.8414L57.7478 32.6597C58.7797 31.9137 59.9732 31.6899 61.3532 31.6899H62.0494V31.6775Z" fill="#4C4C4C"/>
<path d="M76.6449 33.5672V35.7056H74.5563V34.4002C74.5563 32.1872 73.4249 31.2175 72.0947 31.2175C70.7644 31.2175 69.6704 32.1997 69.6704 34.4002V35.7056H67.3953V23.5095H72.2687C74.9665 23.5095 76.2719 24.9392 76.2719 27.4754C76.2719 29.0046 75.3892 29.9867 74.2703 30.4343C75.8492 30.9191 76.6449 32.0878 76.6449 33.5548V33.5672ZM73.9098 27.4878C73.9098 25.7846 72.853 25.6976 72.0947 25.6976H69.6704V30.9067C71.0131 28.9549 73.8973 29.6386 73.8973 27.4878H73.9098Z" fill="#4C4C4C"/>
<path d="M88.8907 35.7056H86.2053L83.4329 31.1927L80.5237 35.7056H78.5222V23.5095H80.7973V31.1678L85.7204 23.5095H88.3685L84.7756 29.0667L88.8658 35.7056H88.8907Z" fill="#4C4C4C"/>
<path d="M99.197 33.5299V35.7056H90.1712V23.5095H99.0229V25.6852H92.4587V30.1483C93.3663 28.93 94.7214 28.3581 95.9397 28.3332H98.0781V30.4219H96.263C94.5225 30.4219 92.4463 31.1927 92.4463 33.5175H99.1846L99.197 33.5299Z" fill="#4C4C4C"/>
<path d="M109.354 23.5217V25.6974H105.823V35.7053H103.548V25.6974H100.018V23.5217H109.367H109.354Z" fill="#4C4C4C"/>
</g>
<defs>
<clipPath id="clip0_406_5171">
<rect width="113.618" height="39" fill="white"/>
</clipPath>
</defs>
</svg>
